<?xml version="1.0" encoding="utf-8"?>
<!-- Generator: Adobe Illustrator 17.0.0, SVG Export Plug-In . SVG Version: 6.00 Build 0)  -->
<!DOCTYPE svg PUBLIC "-//W3C//DTD SVG 1.1//EN" "http://www.w3.org/Graphics/SVG/1.1/DTD/svg11.dtd">
<svg version="1.1" id="Capa_1" xmlns="http://www.w3.org/2000/svg" xmlns:xlink="http://www.w3.org/1999/xlink" x="0px" y="0px"
	 width="93.24px" height="92.09px" viewBox="0 0 93.24 92.09" enable-background="new 0 0 93.24 92.09" xml:space="preserve">
<g>
	<g id="XMLID_1_">
		<g>
			<path fill="#010002" d="M88.313,28.515c0.21,4.54,0.26,5.98,0.26,17.53c0,11.54-0.05,12.99-0.26,17.52
				c-0.2,4.52-0.92,7.61-1.97,10.32c-1.09,2.79-2.54,5.16-4.9,7.52c-2.37,2.37-4.74,3.82-7.53,4.9c-2.7,1.06-5.79,1.77-10.32,1.98
				s-5.98,0.26-17.52,0.26s-12.99-0.05-17.52-0.26s-7.62-0.92-10.32-1.98c-2.79-1.08-5.16-2.53-7.53-4.9
				c-2.36-2.36-3.81-4.73-4.9-7.52c-1.05-2.71-1.77-5.8-1.97-10.32c-0.21-4.53-0.26-5.98-0.26-17.52c0-11.55,0.05-12.99,0.26-17.53
				c0.2-4.52,0.92-7.61,1.97-10.31c1.09-2.8,2.54-5.17,4.9-7.53c2.37-2.36,4.74-3.82,7.53-4.9c2.7-1.05,5.79-1.77,10.32-1.98
				c4.53-0.21,5.98-0.25,17.52-0.25s12.99,0.04,17.52,0.25c4.53,0.21,7.62,0.93,10.32,1.98c2.79,1.08,5.16,2.54,7.53,4.9
				c2.36,2.36,3.81,4.73,4.9,7.53C87.393,20.905,88.113,23.995,88.313,28.515z M80.913,46.045c0-11.35-0.04-12.7-0.25-17.18
				c-0.18-4.14-0.88-6.39-1.46-7.89c-0.77-1.98-1.69-3.4-3.18-4.89c-1.49-1.48-2.9-2.4-4.88-3.18c-1.5-0.58-3.75-1.27-7.9-1.46
				c-4.48-0.2-5.82-0.25-17.17-0.25s-12.69,0.05-17.17,0.25c-4.15,0.19-6.4,0.88-7.9,1.46c-1.98,0.78-3.39,1.7-4.88,3.18
				c-1.49,1.49-2.41,2.91-3.18,4.89c-0.58,1.5-1.28,3.75-1.46,7.89c-0.21,4.48-0.25,5.83-0.25,17.18c0,11.34,0.04,12.69,0.25,17.17
				c0.18,4.14,0.88,6.39,1.46,7.89c0.77,1.98,1.69,3.4,3.18,4.89c1.49,1.49,2.9,2.41,4.88,3.18c1.5,0.58,3.75,1.27,7.9,1.46
				c4.48,0.2,5.82,0.25,17.17,0.25s12.69-0.05,17.17-0.25c4.15-0.19,6.4-0.88,7.9-1.46c1.98-0.77,3.39-1.69,4.88-3.18
				s2.41-2.91,3.18-4.89c0.58-1.5,1.28-3.75,1.46-7.89C80.873,58.735,80.913,57.385,80.913,46.045z"/>
			<path fill="#FFFFFF" d="M80.663,28.865c0.21,4.48,0.25,5.83,0.25,17.18c0,11.34-0.04,12.69-0.25,17.17
				c-0.18,4.14-0.88,6.39-1.46,7.89c-0.77,1.98-1.69,3.4-3.18,4.89s-2.9,2.41-4.88,3.18c-1.5,0.58-3.75,1.27-7.9,1.46
				c-4.48,0.2-5.82,0.25-17.17,0.25s-12.69-0.05-17.17-0.25c-4.15-0.19-6.4-0.88-7.9-1.46c-1.98-0.77-3.39-1.69-4.88-3.18
				c-1.49-1.49-2.41-2.91-3.18-4.89c-0.58-1.5-1.28-3.75-1.46-7.89c-0.21-4.48-0.25-5.83-0.25-17.17c0-11.35,0.04-12.7,0.25-17.18
				c0.18-4.14,0.88-6.39,1.46-7.89c0.77-1.98,1.69-3.4,3.18-4.89c1.49-1.48,2.9-2.4,4.88-3.18c1.5-0.58,3.75-1.27,7.9-1.46
				c4.48-0.2,5.82-0.25,17.17-0.25s12.69,0.05,17.17,0.25c4.15,0.19,6.4,0.88,7.9,1.46c1.98,0.78,3.39,1.7,4.88,3.18
				c1.49,1.49,2.41,2.91,3.18,4.89C79.783,22.475,80.483,24.725,80.663,28.865z M73.863,23.355c0-2.82-2.29-5.1-5.1-5.1
				c-2.82,0-5.1,2.28-5.1,5.1s2.28,5.1,5.1,5.1C71.573,28.455,73.863,26.175,73.863,23.355z M67.893,46.045
				c0-12.06-9.77-21.83-21.82-21.83s-21.82,9.77-21.82,21.83c0,12.05,9.77,21.82,21.82,21.82S67.893,58.095,67.893,46.045z"/>
			<path fill="#010002" d="M68.763,18.255c2.81,0,5.1,2.28,5.1,5.1s-2.29,5.1-5.1,5.1c-2.82,0-5.1-2.28-5.1-5.1
				S65.943,18.255,68.763,18.255z"/>
			<path fill="#010002" d="M46.073,24.215c12.05,0,21.82,9.77,21.82,21.83c0,12.05-9.77,21.82-21.82,21.82s-21.82-9.77-21.82-21.82
				C24.253,33.985,34.023,24.215,46.073,24.215z M60.243,46.045c0-7.83-6.35-14.17-14.17-14.17s-14.17,6.34-14.17,14.17
				c0,7.82,6.35,14.16,14.17,14.16S60.243,53.865,60.243,46.045z"/>
		</g>
		<g>
		</g>
	</g>
</g>
</svg>
