<?xml version="1.0" encoding="utf-8"?>
<!-- Generator: Adobe Illustrator 17.0.0, SVG Export Plug-In . SVG Version: 6.00 Build 0)  -->
<!DOCTYPE svg PUBLIC "-//W3C//DTD SVG 1.1//EN" "http://www.w3.org/Graphics/SVG/1.1/DTD/svg11.dtd">
<svg version="1.1" id="Capa_1" xmlns="http://www.w3.org/2000/svg" xmlns:xlink="http://www.w3.org/1999/xlink" x="0px" y="0px"
	 width="93.24px" height="92.09px" viewBox="0 0 93.24 92.09" enable-background="new 0 0 93.24 92.09" xml:space="preserve">
<g id="XMLID_1_">
	<g>
		<path fill="#010002" d="M89.74,24.385c1.88,7.02,1.88,21.66,1.88,21.66s0,14.64-1.88,21.66c-1.04,3.88-4.09,6.93-7.96,7.96
			c-7.02,1.88-35.16,1.88-35.16,1.88s-28.15,0-35.17-1.88c-3.87-1.03-6.92-4.08-7.95-7.96c-1.88-7.02-1.88-21.66-1.88-21.66
			s0-14.64,1.88-21.66c1.03-3.87,4.08-6.92,7.95-7.96c7.02-1.88,35.17-1.88,35.17-1.88s28.14,0,35.16,1.88
			C85.65,17.465,88.7,20.515,89.74,24.385z M37.62,59.545L61,46.045l-23.38-13.5V59.545z"/>
		<polygon fill="#FFFFFF" points="61,46.045 37.62,59.545 37.62,32.545 		"/>
	</g>
	<g>
	</g>
</g>
</svg>
