<?xml version="1.0" encoding="utf-8"?>
<!-- Generator: Adobe Illustrator 17.0.0, SVG Export Plug-In . SVG Version: 6.00 Build 0)  -->
<!DOCTYPE svg PUBLIC "-//W3C//DTD SVG 1.1//EN" "http://www.w3.org/Graphics/SVG/1.1/DTD/svg11.dtd">
<svg version="1.1" id="Capa_1" xmlns="http://www.w3.org/2000/svg" xmlns:xlink="http://www.w3.org/1999/xlink" x="0px" y="0px"
	 width="158.143px" height="118.286px" viewBox="0 0 158.143 118.286" enable-background="new 0 0 158.143 118.286"
	 xml:space="preserve">
<g>
	<g id="XMLID_1_">
		<g>
			<path d="M156.075,70.509c0.488,3.28,0.462,6.71,0.169,10.03c-0.384,4.361-3.664,7.218-8.084,7.355
				c-4.328,0.137-8.663,0.15-12.991-0.052c-0.989-0.052-2.629-1.061-2.792-1.868c-2.063-10.381-7.784-18.126-16.584-23.769
				c-0.163-0.104-0.228-0.351-0.547-0.866c2.948-3.118,6.554-4.335,10.557-4.419c4.979-0.104,9.965-0.163,14.944,0.007
				C148.922,57.212,154.871,62.4,156.075,70.509z"/>
			<path d="M133.452,18.916c8.422,0.039,15.132,6.867,15.126,15.373c-0.007,8.526-6.932,15.367-15.523,15.328
				c-8.259-0.033-15.197-7.062-15.184-15.393C117.877,25.724,124.854,18.87,133.452,18.916z"/>
			<path d="M125.85,92.228c0.007,2.167,0.02,4.335-0.007,6.502c-0.085,6.873-4.901,11.885-11.898,11.969
				c-11.383,0.137-22.767,0.039-34.15,0.039c0,0.007,0,0.013,0,0.02c-10.843,0-21.68,0.026-32.523-0.007
				c-8.8-0.033-13.219-4.673-13.46-13.466c-0.26-9.561,1.347-18.322,8.715-25.214c5.597-5.239,12.288-7.504,19.819-7.589
				c0.827-0.007,1.699,0.306,2.473,0.644c9.971,4.348,19.76,3.905,30.011,0.312c3.755-1.315,8.839-0.41,12.848,0.911
				C118.846,70.028,125.804,80.461,125.85,92.228z"/>
			<path d="M80.218,3.679c14.436,0.072,26.77,12.457,26.672,26.783c-0.098,14.631-12.451,26.893-27.043,26.841
				c-14.761-0.046-26.815-12.106-26.874-26.887C52.908,15.636,65.17,3.608,80.218,3.679z"/>
			<path d="M26.399,18.916c8.552-0.02,15.523,6.925,15.497,15.432c-0.033,8.285-7.029,15.25-15.347,15.269
				c-8.507,0.02-15.477-6.951-15.451-15.451C11.123,25.75,17.97,18.935,26.399,18.916z"/>
			<path d="M34.248,56.932c3.899,0.091,7.374,1.38,10.212,4.328c-3.313,3.013-6.541,5.565-9.301,8.552
				c-3.964,4.283-6.378,9.516-7.53,15.23c-0.449,2.239-1.445,3.033-3.723,2.935c-4.003-0.169-8.012,0.033-12.021-0.072
				c-5.181-0.13-8.429-3.482-8.533-8.65c-0.039-2.057-0.02-4.113-0.007-6.177C3.43,64.144,9.737,57.362,18.66,56.952
				C23.847,56.711,29.054,56.815,34.248,56.932z"/>
		</g>
		<g>
		</g>
	</g>
</g>
</svg>
