<?xml version="1.0" encoding="utf-8"?>
<!-- Generator: Adobe Illustrator 17.0.0, SVG Export Plug-In . SVG Version: 6.00 Build 0)  -->
<!DOCTYPE svg PUBLIC "-//W3C//DTD SVG 1.1//EN" "http://www.w3.org/Graphics/SVG/1.1/DTD/svg11.dtd">
<svg version="1.1" id="Capa_1" xmlns="http://www.w3.org/2000/svg" xmlns:xlink="http://www.w3.org/1999/xlink" x="0px" y="0px"
	 width="158.143px" height="154.714px" viewBox="0 0 158.143 154.714" enable-background="new 0 0 158.143 154.714"
	 xml:space="preserve">
<g>
	<g id="XMLID_1_">
		<g>
			<path d="M113.071,51.952c6.378,0.061,11.174-4.636,11.19-10.929c0.015-6.201-4.973-11.22-11.113-11.174
				c-6.078,0.038-10.837,4.797-10.913,10.913C102.15,47.278,106.624,51.898,113.071,51.952z M79.325,147.64
				c-6.531,3.208-11.113,0.384-11.205-6.915c-0.1-7.414-0.023-14.835-0.038-22.249c-0.008-1.236-0.115-2.479-0.177-3.715
				c-0.361-0.269-0.729-0.53-1.09-0.798c-1.42,1.711-2.686,3.584-4.282,5.111c-4.083,3.906-9.693,4.029-13.799,0.161
				c-4.651-4.375-9.164-8.918-13.569-13.546c-4.175-4.39-3.991-9.977,0.284-14.359c1.328-1.358,2.824-2.548,4.244-3.814
				c-0.161-0.376-0.322-0.744-0.484-1.121c-7.237,0-14.482,0.038-21.727-0.023c-2.157-0.015-4.352-0.107-6.47-0.476
				c-4.789-0.821-7.237-5.035-5.157-9.417c4.589-9.685,9.217-19.371,14.344-28.78c2.333-4.29,6.585-6.7,11.758-6.723
				c8.181-0.031,16.37-0.161,24.544,0.061c3.162,0.077,5.104-0.852,6.907-3.523c6.7-9.962,14.85-18.588,25.25-24.774
				c13.346-7.936,28.059-8.68,43.032-7.521c3.684,0.284,7.437,0.545,10.982,1.481c1.788,0.468,4.336,2.241,4.589,3.753
				c2.678,15.979,3.891,32.019-2.233,47.552c-5.603,14.213-16.278,24.252-28.427,32.84c-2.249,1.596-3.246,3.154-3.193,5.894
				c0.153,7.928,0.046,15.856,0.046,23.784c0.008,6.769-2.847,11.658-9.102,14.651C95.949,139.205,87.691,143.534,79.325,147.64z"/>
		</g>
		<g>
		</g>
	</g>
</g>
</svg>
