<?xml version="1.0" encoding="utf-8"?>
<!-- Generator: Adobe Illustrator 17.0.0, SVG Export Plug-In . SVG Version: 6.00 Build 0)  -->
<!DOCTYPE svg PUBLIC "-//W3C//DTD SVG 1.1//EN" "http://www.w3.org/Graphics/SVG/1.1/DTD/svg11.dtd">
<svg version="1.1" id="Capa_1" xmlns="http://www.w3.org/2000/svg" xmlns:xlink="http://www.w3.org/1999/xlink" x="0px" y="0px"
	 width="158.143px" height="154.714px" viewBox="0 0 158.143 154.714" enable-background="new 0 0 158.143 154.714"
	 xml:space="preserve">
<g>
	<path d="M128.256,31.162c-0.308-6.543-0.587-13.088-0.936-19.628c-0.228-4.285,0.937-5.638,5.239-5.695
		c3.624-0.048,7.249-0.012,10.873,0c2.841,0.009,4.278,1.367,4.274,4.289c-0.022,18.51-0.018,37.021-0.005,55.532
		c0.002,2.909-1.43,4.267-4.292,4.266c-18.381-0.003-36.762-0.007-55.143,0.016c-3.049,0.004-4.583-1.493-4.628-4.469
		c-0.059-3.882-0.074-7.767,0.004-11.649c0.059-2.964,1.547-4.394,4.662-4.362c8.901,0.092,17.804,0.032,26.673,0.032
		c-3.08-4.811-7.74-9.074-13.148-12.567C74.027,18.97,36.477,32.686,26.994,64.241c-8.316,27.67,8.422,57.018,36.385,63.238
		c15.48,3.443,29.775,0.431,42.357-9.566c4.268-3.391,5.158-3.343,9.096,0.524c2.032,1.995,4.049,4.006,6.04,6.042
		c3.541,3.621,3.433,5.168-0.517,8.494c-11.414,9.61-24.455,15.21-39.416,16.376c-18.017,1.405-34.452-2.77-48.73-13.97
		C12.429,119.865,3.181,99.64,4.205,74.23C5.47,42.858,32.393,11.889,66.766,8.474c22.031-2.188,41.383,4.308,57.531,19.7
		c1.115,1.063,2.045,2.321,3.061,3.488C127.658,31.495,127.957,31.329,128.256,31.162z"/>
</g>
</svg>
