<?xml version="1.0" encoding="utf-8"?>
<!-- Generator: Adobe Illustrator 17.0.0, SVG Export Plug-In . SVG Version: 6.00 Build 0)  -->
<!DOCTYPE svg PUBLIC "-//W3C//DTD SVG 1.1//EN" "http://www.w3.org/Graphics/SVG/1.1/DTD/svg11.dtd">
<svg version="1.1" id="Capa_1" xmlns="http://www.w3.org/2000/svg" xmlns:xlink="http://www.w3.org/1999/xlink" x="0px" y="0px"
	 width="244.571px" height="154.714px" viewBox="0 0 244.571 154.714" enable-background="new 0 0 244.571 154.714"
	 xml:space="preserve">
<g>
	<g id="XMLID_1_">
		<g>
			<path d="M240.87,46.979c0.09,5.39-3.51,7.84-8.21,9.26c-34.02,10.32-67.97,20.85-102.09,30.82c-4.66,1.36-10.42,1.07-15.15-0.28
				c-22.51-6.44-44.9-13.35-67.21-20.48c-4.7-1.5-7.36-0.07-9.48,3.54c-2.09,3.57-4.31,7.03,0.08,11.02
				c3.71,3.38,3.86,10.34,0.43,14.16c-2.31,2.58-2.15,4.81-1.47,7.72c2.7,11.49,5.21,23.01,7.81,34.52c1.47,6.53-0.85,9.6-7.42,9.65
				c-5.66,0.04-11.33,0.05-16.99-0.01c-6.27-0.05-8.66-3.01-7.29-9.29c2.59-11.85,5.46-23.64,7.88-35.52
				c0.41-2.05-0.21-4.82-1.38-6.58c-3.65-5.51-3.35-11.1,0.99-15.93c1.41-1.56,2.02-3.9,2.81-5.96c0.77-2.01,1.15-4.17,1.98-6.16
				c0.82-1.95,1.97-3.77,3.38-6.41c-5.72-1.83-10.73-3.5-15.78-5.03c-4.58-1.39-7.83-4.01-7.73-9.1c0.1-4.83,3.33-7.4,7.66-8.72
				c34.31-10.48,68.58-21.12,103.02-31.2c4.61-1.35,10.36-0.88,15.06,0.5c33.64,9.85,67.14,20.17,100.69,30.31
				C237.12,39.219,240.78,41.639,240.87,46.979z"/>
			<path d="M193.66,119.149c1.56,6.58-0.96,11.52-6.35,14.33c-6.72,3.5-13.8,6.9-21.12,8.56c-33.23,7.54-66.3,7.57-98.76-4.25
				c-2.32-0.85-4.48-2.17-6.61-3.45c-5.81-3.47-8.61-7.99-7.34-15.32c1.95-11.29,2.9-22.75,4.29-34.13c0.1-0.79,0.37-1.57,0.75-3.14
				c9.95,3,19.31,5.82,28.67,8.64c8.27,2.49,16.53,5.01,24.82,7.46c7.53,2.23,15.09,2.32,22.64,0.06
				c16.23-4.88,32.45-9.77,48.69-14.64c1.55-0.47,3.14-0.82,5.41-1.41c1.14,8.59,2.24,16.75,3.31,24.92
				C192.59,110.909,192.7,115.129,193.66,119.149z"/>
		</g>
		<g>
		</g>
	</g>
</g>
</svg>
