<?xml version="1.0" encoding="utf-8"?>
<!-- Generator: Adobe Illustrator 17.0.0, SVG Export Plug-In . SVG Version: 6.00 Build 0)  -->
<!DOCTYPE svg PUBLIC "-//W3C//DTD SVG 1.1//EN" "http://www.w3.org/Graphics/SVG/1.1/DTD/svg11.dtd">
<svg version="1.1" id="Capa_1" xmlns="http://www.w3.org/2000/svg" xmlns:xlink="http://www.w3.org/1999/xlink" x="0px" y="0px"
	 width="93.24px" height="92.09px" viewBox="0 0 93.24 92.09" enable-background="new 0 0 93.24 92.09" xml:space="preserve">
<g>
	<g id="XMLID_1_">
		<g>
			<path fill="#010002" d="M87.485,55.759c0.017,9.557-0.033,19.114,0,28.671c0,0.893-0.248,1.124-1.141,1.124
				c-4.911-0.033-9.838-0.05-14.765,0c-0.86,0.017-1.058-0.265-1.042-1.075c0.017-9.094,0.033-18.188,0-27.282
				c-0.017-2.282-0.149-4.547-0.794-6.763c-1.174-4.084-4.101-6.167-8.367-5.936c-5.837,0.298-8.879,3.191-9.623,9.127
				c-0.182,1.422-0.265,2.844-0.265,4.266c0.017,8.846,0,17.692,0.033,26.522c0,0.893-0.231,1.157-1.124,1.141
				c-4.96-0.05-9.921-0.033-14.881,0c-0.794,0-1.025-0.215-1.025-1.009c0.033-17.51,0.033-35.02,0-52.53
				c0-0.86,0.298-1.058,1.108-1.058c4.712,0.033,9.425,0.05,14.121,0c0.876,0,1.091,0.265,1.075,1.091
				c-0.05,2.1-0.017,4.183-0.017,6.283c1.141-1.273,2.083-2.579,3.241-3.671c3.588-3.39,7.837-5.093,12.781-5.043
				c2.728,0.017,5.423,0.215,8.036,0.976c6.019,1.736,9.507,5.87,11.161,11.723C87.254,46.714,87.485,51.228,87.485,55.759z"/>
			<path fill="#010002" d="M23.827,32.131c-0.033,8.747-0.017,17.477-0.017,26.207c0,8.664-0.017,17.312,0.017,25.976
				c0,0.959-0.231,1.257-1.224,1.24c-4.927-0.05-9.838-0.033-14.765,0c-0.794,0-1.025-0.198-1.025-1.009
				c0.017-17.543,0.017-35.07,0-52.613c0-0.711,0.182-0.976,0.942-0.976c4.993,0.033,9.987,0.05,14.98,0
				C23.695,30.94,23.827,31.32,23.827,32.131z"/>
			<path fill="#010002" d="M15.361,3.807c5.374,0,9.805,4.415,9.805,9.772c0,5.44-4.415,9.871-9.838,9.871
				c-5.341,0-9.805-4.431-9.822-9.788C5.49,8.255,9.938,3.79,15.361,3.807z"/>
		</g>
		<g>
		</g>
	</g>
</g>
</svg>
