<?xml version="1.0" encoding="utf-8"?>
<!-- Generator: Adobe Illustrator 17.0.0, SVG Export Plug-In . SVG Version: 6.00 Build 0)  -->
<!DOCTYPE svg PUBLIC "-//W3C//DTD SVG 1.1//EN" "http://www.w3.org/Graphics/SVG/1.1/DTD/svg11.dtd">
<svg version="1.1" id="Capa_1" xmlns="http://www.w3.org/2000/svg" xmlns:xlink="http://www.w3.org/1999/xlink" x="0px" y="0px"
	 width="93.24px" height="92.09px" viewBox="0 0 93.24 92.09" enable-background="new 0 0 93.24 92.09" xml:space="preserve">
<g>
	<g>
		<path fill="#010002" d="M30.134,80.783c32.335,0,50.017-26.788,50.017-50.017c0-0.761-0.015-1.519-0.05-2.273
			c3.432-2.481,6.416-5.577,8.77-9.102c-3.15,1.399-6.54,2.342-10.095,2.767c3.629-2.176,6.416-5.62,7.73-9.724
			c-3.397,2.014-7.158,3.478-11.162,4.267c-3.208-3.417-7.776-5.554-12.832-5.554c-9.709,0-17.582,7.873-17.582,17.578
			c0,1.38,0.155,2.721,0.456,4.008c-14.61-0.734-27.565-7.73-36.234-18.367C7.64,16.964,6.77,19.983,6.77,23.202
			c0,6.099,3.104,11.483,7.823,14.633C11.709,37.746,9,36.954,6.631,35.636c-0.004,0.073-0.004,0.147-0.004,0.224
			c0,8.515,6.06,15.622,14.103,17.234c-1.476,0.402-3.03,0.618-4.634,0.618c-1.133,0-2.234-0.112-3.305-0.317
			c2.238,6.984,8.727,12.067,16.422,12.21C23.196,70.32,15.617,73.13,7.381,73.13c-1.419,0-2.818-0.081-4.194-0.243
			C10.967,77.872,20.205,80.783,30.134,80.783"/>
	</g>
</g>
</svg>
